<svg width="32" height="32" viewBox="0 0 32 32" fill="none" xmlns="http://www.w3.org/2000/svg">
<g clip-path="url(#clip0_106_2)">
<rect width="32" height="32" fill="white"/>
<path d="M5.43111 23V8.81818H9.81676V11.4034H9.96449C10.223 10.4678 10.6446 9.77225 11.2294 9.31676C11.8142 8.85511 12.4943 8.62429 13.2699 8.62429C13.4792 8.62429 13.6946 8.63968 13.9162 8.67045C14.1378 8.69508 14.344 8.73508 14.5348 8.79048V12.7145C14.3194 12.6406 14.0362 12.5821 13.6854 12.5391C13.3407 12.496 13.0329 12.4744 12.7621 12.4744C12.2266 12.4744 11.7434 12.5945 11.3125 12.8345C10.8878 13.0684 10.5523 13.3977 10.3061 13.8224C10.0661 14.241 9.94602 14.7334 9.94602 15.2997V23H5.43111Z" fill="#121212"/>
<circle cx="23.6667" cy="19.0001" r="4.33333" fill="#F70000"/>
</g>
<defs>
<clipPath id="clip0_106_2">
<rect width="32" height="32" fill="white"/>
</clipPath>
</defs>
</svg>
