<svg width="133" height="34" viewBox="0 0 133 34" fill="none" xmlns="http://www.w3.org/2000/svg">
<path d="M1.32102 26V12.9091H5.36932V15.2955H5.50568C5.74432 14.4318 6.13352 13.7898 6.6733 13.3693C7.21307 12.9432 7.84091 12.7301 8.55682 12.7301C8.75 12.7301 8.94886 12.7443 9.15341 12.7727C9.35795 12.7955 9.5483 12.8324 9.72443 12.8835V16.5057C9.52557 16.4375 9.2642 16.3835 8.94034 16.3438C8.62216 16.304 8.33807 16.2841 8.08807 16.2841C7.59375 16.2841 7.14773 16.3949 6.75 16.6165C6.35795 16.8324 6.0483 17.1364 5.82102 17.5284C5.59943 17.9148 5.48864 18.3693 5.48864 18.892V26H1.32102ZM14.6207 26.2216C13.7855 26.2216 13.044 26.0824 12.3963 25.804C11.7543 25.5199 11.2457 25.0937 10.8707 24.5256C10.5014 23.9517 10.3168 23.233 10.3168 22.3693C10.3168 21.642 10.4446 21.0284 10.7003 20.5284C10.956 20.0284 11.3082 19.6222 11.7571 19.3097C12.206 18.9972 12.723 18.7614 13.3082 18.6023C13.8935 18.4375 14.5185 18.3267 15.1832 18.2699C15.9276 18.2017 16.527 18.1307 16.9815 18.0568C17.4361 17.9773 17.7656 17.8665 17.9702 17.7244C18.1804 17.5767 18.2855 17.3693 18.2855 17.1023V17.0597C18.2855 16.6222 18.1349 16.2841 17.8338 16.0455C17.5327 15.8068 17.1264 15.6875 16.6151 15.6875C16.0639 15.6875 15.6207 15.8068 15.2855 16.0455C14.9503 16.2841 14.7372 16.6136 14.6463 17.0341L10.8026 16.8977C10.9162 16.1023 11.2088 15.392 11.6804 14.767C12.1577 14.1364 12.8111 13.642 13.6406 13.2841C14.4759 12.9205 15.4787 12.7386 16.6491 12.7386C17.4844 12.7386 18.2543 12.8381 18.9588 13.0369C19.6634 13.2301 20.277 13.5142 20.7997 13.8892C21.3224 14.2585 21.7259 14.7131 22.0099 15.2528C22.2997 15.7926 22.4446 16.4091 22.4446 17.1023V26H18.5241V24.1761H18.4219C18.1889 24.6193 17.8906 24.9943 17.527 25.3011C17.169 25.608 16.7457 25.8381 16.2571 25.9915C15.7741 26.1449 15.2287 26.2216 14.6207 26.2216ZM15.9077 23.4943C16.3565 23.4943 16.7599 23.4034 17.1179 23.2216C17.4815 23.0398 17.7713 22.7898 17.9872 22.4716C18.2031 22.1477 18.3111 21.7727 18.3111 21.3466V20.1023C18.1918 20.1648 18.0469 20.2216 17.8764 20.2727C17.7116 20.3239 17.5298 20.3722 17.331 20.4176C17.1321 20.4631 16.9276 20.5028 16.7173 20.5369C16.5071 20.571 16.3054 20.6023 16.1122 20.6307C15.7202 20.6932 15.3849 20.7898 15.1065 20.9205C14.8338 21.0511 14.6236 21.2216 14.4759 21.4318C14.3338 21.6364 14.2628 21.8807 14.2628 22.1648C14.2628 22.5966 14.4162 22.9261 14.723 23.1534C15.0355 23.3807 15.4304 23.4943 15.9077 23.4943ZM29.1605 18.5341V26H24.9929V12.9091H28.956V15.3125H29.1009C29.3906 14.5114 29.8849 13.8835 30.5838 13.429C31.2827 12.9688 32.1151 12.7386 33.081 12.7386C34.0014 12.7386 34.7997 12.946 35.4759 13.3608C36.1577 13.7699 36.6861 14.3437 37.0611 15.0824C37.4418 15.8153 37.6293 16.6733 37.6236 17.6562V26H33.456V18.4744C33.4616 17.7472 33.277 17.179 32.902 16.7699C32.5327 16.3608 32.0185 16.1562 31.3594 16.1562C30.9219 16.1562 30.5355 16.2528 30.2003 16.446C29.8707 16.6335 29.6151 16.9034 29.4332 17.2557C29.2571 17.608 29.1662 18.0341 29.1605 18.5341ZM44.9851 26.1875C44.0192 26.1875 43.1413 25.9375 42.3516 25.4375C41.5618 24.9375 40.9311 24.1875 40.4595 23.1875C39.9879 22.1875 39.7521 20.946 39.7521 19.4631C39.7521 17.9233 39.9964 16.6562 40.4851 15.6619C40.9737 14.6676 41.6129 13.9318 42.4027 13.4545C43.1982 12.9773 44.0533 12.7386 44.968 12.7386C45.6555 12.7386 46.2436 12.858 46.7322 13.0966C47.2209 13.3295 47.6243 13.6307 47.9425 14C48.2607 14.3693 48.5021 14.7528 48.6669 15.1506H48.7521V8.54545H52.9197V26H48.7947V23.8778H48.6669C48.4908 24.2812 48.2408 24.6591 47.9169 25.0114C47.593 25.3636 47.1868 25.6477 46.6982 25.8636C46.2152 26.0795 45.6442 26.1875 44.9851 26.1875ZM46.4339 22.9403C46.9396 22.9403 47.3714 22.7983 47.7294 22.5142C48.0874 22.2244 48.3629 21.8182 48.5561 21.2955C48.7493 20.7727 48.8459 20.1591 48.8459 19.4545C48.8459 18.7386 48.7493 18.1222 48.5561 17.6051C48.3686 17.0881 48.093 16.6903 47.7294 16.4119C47.3714 16.1335 46.9396 15.9943 46.4339 15.9943C45.9169 15.9943 45.4794 16.1364 45.1214 16.4205C44.7635 16.7045 44.4908 17.1051 44.3033 17.6222C44.1214 18.1392 44.0305 18.75 44.0305 19.4545C44.0305 20.1591 44.1243 20.7727 44.3118 21.2955C44.4993 21.8182 44.7692 22.2244 45.1214 22.5142C45.4794 22.7983 45.9169 22.9403 46.4339 22.9403ZM61.6662 26.2472C60.2912 26.2472 59.1094 25.9659 58.1207 25.4034C57.1378 24.8352 56.3793 24.0455 55.8452 23.0341C55.3168 22.017 55.0526 20.8381 55.0526 19.4972C55.0526 18.1506 55.3168 16.9716 55.8452 15.9602C56.3793 14.9432 57.1378 14.1534 58.1207 13.5909C59.1094 13.0227 60.2912 12.7386 61.6662 12.7386C63.0412 12.7386 64.2202 13.0227 65.2031 13.5909C66.1918 14.1534 66.9503 14.9432 67.4787 15.9602C68.0128 16.9716 68.2798 18.1506 68.2798 19.4972C68.2798 20.8381 68.0128 22.017 67.4787 23.0341C66.9503 24.0455 66.1918 24.8352 65.2031 25.4034C64.2202 25.9659 63.0412 26.2472 61.6662 26.2472ZM61.6918 23.1023C62.1918 23.1023 62.6151 22.9489 62.9616 22.642C63.3082 22.3352 63.5724 21.9091 63.7543 21.3636C63.9418 20.8182 64.0355 20.1875 64.0355 19.4716C64.0355 18.7443 63.9418 18.108 63.7543 17.5625C63.5724 17.017 63.3082 16.5909 62.9616 16.2841C62.6151 15.9773 62.1918 15.8239 61.6918 15.8239C61.1747 15.8239 60.7372 15.9773 60.3793 16.2841C60.027 16.5909 59.7571 17.017 59.5696 17.5625C59.3878 18.108 59.2969 18.7443 59.2969 19.4716C59.2969 20.1875 59.3878 20.8182 59.5696 21.3636C59.7571 21.9091 60.027 22.3352 60.3793 22.642C60.7372 22.9489 61.1747 23.1023 61.6918 23.1023ZM70.4148 26V12.9091H74.3778V15.3125H74.5227C74.7955 14.517 75.2557 13.8892 75.9034 13.429C76.5511 12.9688 77.3239 12.7386 78.2216 12.7386C79.1307 12.7386 79.9091 12.9716 80.5568 13.4375C81.2045 13.9034 81.6165 14.5284 81.7926 15.3125H81.929C82.1733 14.5341 82.6506 13.9119 83.3608 13.446C84.071 12.9744 84.9091 12.7386 85.875 12.7386C87.1136 12.7386 88.1193 13.1364 88.892 13.9318C89.6648 14.7216 90.0511 15.8068 90.0511 17.1875V26H85.8835V18.142C85.8835 17.4886 85.7159 16.9915 85.3807 16.6506C85.0455 16.304 84.6108 16.1307 84.0767 16.1307C83.5028 16.1307 83.0511 16.3182 82.7216 16.6932C82.3977 17.0625 82.2358 17.5597 82.2358 18.1847V26H78.2301V18.0994C78.2301 17.4915 78.0653 17.0114 77.7358 16.6591C77.4063 16.3068 76.9716 16.1307 76.4318 16.1307C76.0682 16.1307 75.7472 16.2187 75.4688 16.3949C75.1903 16.5653 74.9716 16.8097 74.8125 17.1278C74.6591 17.446 74.5824 17.821 74.5824 18.2528V26H70.4148ZM93.4261 26V8.54545H95.4375V14.9886H95.608C95.7557 14.7614 95.9602 14.4716 96.2216 14.1193C96.4886 13.7614 96.8693 13.4432 97.3636 13.1648C97.8636 12.8807 98.5398 12.7386 99.392 12.7386C100.494 12.7386 101.466 13.0142 102.307 13.5653C103.148 14.1165 103.804 14.8977 104.276 15.9091C104.747 16.9205 104.983 18.1136 104.983 19.4886C104.983 20.875 104.747 22.0767 104.276 23.0938C103.804 24.1051 103.151 24.8892 102.315 25.446C101.48 25.9972 100.517 26.2727 99.4261 26.2727C98.5852 26.2727 97.9119 26.1335 97.4062 25.8551C96.9006 25.571 96.5114 25.25 96.2386 24.892C95.9659 24.5284 95.7557 24.2273 95.608 23.9886H95.3693V26H93.4261ZM95.4034 19.4545C95.4034 20.4432 95.5483 21.3153 95.8381 22.071C96.1278 22.821 96.5511 23.4091 97.108 23.8352C97.6648 24.2557 98.3466 24.4659 99.1534 24.4659C99.9943 24.4659 100.696 24.2443 101.259 23.8011C101.827 23.3523 102.253 22.75 102.537 21.9943C102.827 21.233 102.972 20.3864 102.972 19.4545C102.972 18.5341 102.83 17.7045 102.545 16.9659C102.267 16.2216 101.844 15.6335 101.276 15.2017C100.713 14.7642 100.006 14.5455 99.1534 14.5455C98.3352 14.5455 97.6477 14.7528 97.0909 15.1676C96.5341 15.5767 96.1136 16.1506 95.8295 16.8892C95.5455 17.6222 95.4034 18.4773 95.4034 19.4545ZM113.344 31.1818C112.372 31.1818 111.537 31.0568 110.838 30.8068C110.139 30.5625 109.557 30.2386 109.091 29.8352C108.631 29.4375 108.264 29.0114 107.991 28.5568L109.594 27.4318C109.776 27.6705 110.006 27.9432 110.284 28.25C110.563 28.5625 110.943 28.8324 111.426 29.0597C111.915 29.2926 112.554 29.4091 113.344 29.4091C114.401 29.4091 115.273 29.1534 115.96 28.642C116.648 28.1307 116.991 27.3295 116.991 26.2386V23.5795H116.821C116.673 23.8182 116.463 24.1136 116.19 24.4659C115.923 24.8125 115.537 25.1222 115.031 25.3949C114.531 25.6619 113.855 25.7955 113.003 25.7955C111.946 25.7955 110.997 25.5455 110.156 25.0455C109.321 24.5455 108.659 23.8182 108.17 22.8636C107.688 21.9091 107.446 20.75 107.446 19.3864C107.446 18.0455 107.682 16.8778 108.153 15.8835C108.625 14.8835 109.281 14.1108 110.122 13.5653C110.963 13.0142 111.935 12.7386 113.037 12.7386C113.889 12.7386 114.565 12.8807 115.065 13.1648C115.571 13.4432 115.957 13.7614 116.224 14.1193C116.497 14.4716 116.707 14.7614 116.855 14.9886H117.06V12.9091H119.003V26.375C119.003 27.5 118.747 28.4148 118.236 29.1193C117.73 29.8295 117.048 30.3494 116.19 30.679C115.338 31.0142 114.389 31.1818 113.344 31.1818ZM113.276 23.9886C114.082 23.9886 114.764 23.804 115.321 23.4347C115.878 23.0653 116.301 22.5341 116.591 21.8409C116.881 21.1477 117.026 20.3182 117.026 19.3523C117.026 18.4091 116.884 17.5767 116.599 16.8551C116.315 16.1335 115.895 15.5682 115.338 15.1591C114.781 14.75 114.094 14.5455 113.276 14.5455C112.423 14.5455 111.713 14.7614 111.145 15.1932C110.582 15.625 110.159 16.2045 109.875 16.9318C109.597 17.6591 109.457 18.4659 109.457 19.3523C109.457 20.2614 109.599 21.0653 109.884 21.7642C110.173 22.4574 110.599 23.0028 111.162 23.4006C111.73 23.7926 112.435 23.9886 113.276 23.9886Z" fill="#121212"/>
<circle cx="129" cy="22" r="4" fill="#F70000"/>
</svg>
